<?xml version="1.0" encoding="UTF-8"?>
<svg version="1.1" xmlns="http://www.w3.org/2000/svg" width="100" height="100">
<path d="M0 0 C1.18803223 -0.01260864 2.37606445 -0.02521729 3.60009766 -0.03820801 C4.87933105 -0.03011108 6.15856445 -0.02201416 7.4765625 -0.01367188 C8.79317871 -0.01749878 10.10979492 -0.02132568 11.46630859 -0.02526855 C14.25051684 -0.03115911 17.03421099 -0.02261601 19.81835938 -0.00390625 C23.38305583 0.01888437 26.94654768 0.00575872 30.51119995 -0.01819611 C33.9164168 -0.03614518 37.32131144 -0.02356965 40.7265625 -0.01367188 C42.6454126 -0.02581726 42.6454126 -0.02581726 44.60302734 -0.03820801 C46.38507568 -0.01929504 46.38507568 -0.01929504 48.203125 0 C49.24807129 0.00318237 50.29301758 0.00636475 51.36962891 0.00964355 C54.79196697 0.64594153 55.97726589 1.81283683 58.1015625 4.51757812 C58.61914062 6.92773437 58.61914062 6.92773437 58.6328125 9.58007812 C58.64054687 11.02253906 58.64054687 11.02253906 58.6484375 12.49414062 C58.63296875 13.491875 58.6175 14.48960938 58.6015625 15.51757812 C58.62476562 17.01417969 58.62476562 17.01417969 58.6484375 18.54101562 C58.64328125 19.50265625 58.638125 20.46429688 58.6328125 21.45507812 C58.62830078 22.33035156 58.62378906 23.205625 58.61914062 24.10742188 C57.91933565 27.36613638 56.68182756 28.43937206 54.1015625 30.51757812 C51.36962891 31.0255127 51.36962891 31.0255127 48.203125 31.03515625 C46.42107666 31.05406921 46.42107666 31.05406921 44.60302734 31.07336426 C43.32379395 31.06526733 42.04456055 31.05717041 40.7265625 31.04882812 C39.40994629 31.05265503 38.09333008 31.05648193 36.73681641 31.0604248 C33.95260816 31.06631536 31.16891401 31.05777226 28.38476562 31.0390625 C24.82006917 31.01627188 21.25657732 31.02939753 17.69192505 31.05335236 C14.2867082 31.07130143 10.88181356 31.0587259 7.4765625 31.04882812 C6.1973291 31.05692505 4.9180957 31.06502197 3.60009766 31.07336426 C2.41206543 31.06075562 1.2240332 31.04814697 0 31.03515625 C-1.04494629 31.03197388 -2.08989258 31.0287915 -3.16650391 31.0255127 C-6.58884197 30.38921472 -7.77414089 29.22231942 -9.8984375 26.51757812 C-10.41601562 24.10742188 -10.41601562 24.10742188 -10.4296875 21.45507812 C-10.43484375 20.4934375 -10.44 19.53179687 -10.4453125 18.54101562 C-10.42984375 17.54328125 -10.414375 16.54554687 -10.3984375 15.51757812 C-10.41390625 14.51984375 -10.429375 13.52210937 -10.4453125 12.49414062 C-10.44015625 11.5325 -10.435 10.57085937 -10.4296875 9.58007812 C-10.42517578 8.70480469 -10.42066406 7.82953125 -10.41601562 6.92773438 C-9.19118725 1.22419395 -5.33984589 0.01626245 0 0 Z " fill="#FFFFFF" transform="translate(21.8984375,37.482421875)"/>
<path d="M0 0 C1.89755791 -0.01925285 1.89755791 -0.01925285 3.83345032 -0.03889465 C5.22123829 -0.04706227 6.60903069 -0.05450596 7.99682617 -0.0612793 C9.04383981 -0.06739259 9.04383981 -0.06739259 10.11200523 -0.07362938 C13.80708902 -0.09449026 17.50213568 -0.10879138 21.19726562 -0.11816406 C25.01063097 -0.12922377 28.82341202 -0.16361758 32.63657093 -0.20333576 C35.57143729 -0.22950496 38.50616455 -0.23785615 41.44113731 -0.24144554 C42.84654368 -0.24631145 44.25194384 -0.25792575 45.6572361 -0.27648354 C47.62681613 -0.30087456 49.59668039 -0.2974902 51.56640625 -0.29296875 C53.24613274 -0.30176811 53.24613274 -0.30176811 54.95979309 -0.31074524 C58.65972808 0.28731004 60.31303517 1.59431901 62.97729492 4.17700195 C65.13882352 8.50005915 64.2515634 14.2411466 64.28979492 18.98950195 C64.33330078 20.77324219 64.33330078 20.77324219 64.37768555 22.59301758 C64.38606445 23.74092773 64.39444336 24.88883789 64.40307617 26.0715332 C64.41765869 27.12187744 64.43224121 28.17222168 64.44726562 29.25439453 C63.86124678 32.8986707 62.50995767 34.54474177 59.97729492 37.17700195 C57.23624018 38.54752933 55.02274214 38.32697447 51.95458984 38.35400391 C50.05703194 38.37325676 50.05703194 38.37325676 48.12113953 38.39289856 C46.73335155 38.40106618 45.34555915 38.40850987 43.95776367 38.4152832 C42.91075004 38.42139649 42.91075004 38.42139649 41.84258461 38.42763329 C38.14750082 38.44849417 34.45245416 38.46279529 30.75732422 38.47216797 C26.94395887 38.48322767 23.13117783 38.51762148 19.31801891 38.55733967 C16.38315256 38.58350886 13.4484253 38.59186005 10.51345253 38.59544945 C9.10804616 38.60031535 7.70264601 38.61192966 6.29735374 38.63048744 C4.32777372 38.65487846 2.35790945 38.65149411 0.38818359 38.64697266 C-1.29154289 38.65577202 -1.29154289 38.65577202 -3.00520325 38.66474915 C-6.70513824 38.06669387 -8.35844532 36.75968489 -11.02270508 34.17700195 C-13.18423367 29.85394476 -12.29697355 24.11285731 -12.33520508 19.36450195 C-12.36420898 18.1753418 -12.39321289 16.98618164 -12.4230957 15.76098633 C-12.43147461 14.61307617 -12.43985352 13.46516602 -12.44848633 12.2824707 C-12.46306885 11.23212646 -12.47765137 10.18178223 -12.49267578 9.09960938 C-11.90665693 5.4553332 -10.55536782 3.80926214 -8.02270508 1.17700195 C-5.28165033 -0.19352542 -3.0681523 0.02702944 0 0 Z M-7.77270508 5.55200195 C-10.77256706 9.45182253 -10.20591264 14.40569897 -10.21020508 19.11450195 C-10.22245117 19.81768555 -10.23469727 20.52086914 -10.24731445 21.24536133 C-10.26123627 26.19688628 -9.74372203 29.98661674 -6.64770508 33.92700195 C-3.37930085 36.44115905 0.31610743 36.30599304 4.30908203 36.32226562 C5.37376205 36.32864548 6.43844208 36.33502533 7.53538513 36.34159851 C9.25266563 36.34326775 9.25266563 36.34326775 11.00463867 36.3449707 C12.77624107 36.3499633 12.77624107 36.3499633 14.58363342 36.35505676 C17.08097952 36.36011853 19.57833237 36.36246532 22.07568359 36.36230469 C25.89651621 36.36449149 29.71706025 36.38265635 33.5378418 36.40161133 C35.9642731 36.40454532 38.39070578 36.40653008 40.81713867 36.4074707 C41.95996811 36.41465622 43.10279755 36.42184174 44.28025818 36.429245 C45.88200645 36.42463005 45.88200645 36.42463005 47.51611328 36.41992188 C48.4522496 36.42134689 49.38838593 36.42277191 50.35289001 36.42424011 C53.98766317 36.08181787 56.85242803 35.06082594 59.72729492 32.80200195 C62.72715691 28.90218137 62.16050249 23.94830494 62.16479492 19.23950195 C62.17704102 18.53631836 62.18928711 17.83313477 62.2019043 17.10864258 C62.21582611 12.15711763 61.69831187 8.36738717 58.60229492 4.42700195 C55.33389069 1.91284485 51.63848241 2.04801087 47.64550781 2.03173828 C46.58082779 2.02535843 45.51614777 2.01897858 44.41920471 2.0124054 C43.27435104 2.01129257 42.12949738 2.01017975 40.94995117 2.0090332 C39.7688829 2.0057048 38.58781464 2.0023764 37.37095642 1.99894714 C34.87361033 1.99388538 32.37625747 1.99153859 29.87890625 1.99169922 C26.05807363 1.98951241 22.23752959 1.97134755 18.41674805 1.95239258 C15.99031674 1.94945859 13.56388407 1.94747383 11.13745117 1.9465332 C9.99462173 1.93934769 8.8517923 1.93216217 7.67433167 1.92475891 C6.07258339 1.92937386 6.07258339 1.92937386 4.43847656 1.93408203 C3.50234024 1.93265701 2.56620392 1.93123199 1.60169983 1.92976379 C-2.03307333 2.27218604 -4.89783818 3.29317796 -7.77270508 5.55200195 Z " fill="#FFFFFF" transform="translate(20.022705078125,33.822998046875)"/>
<path d="M0 0 C4 2 4 2 6 5 C6.71614033 9.91305577 6.7029451 13.82842483 4.125 18.125 C2 20 2 20 0 20 C0 13.4 0 6.8 0 0 Z " fill="#FFFFFF" transform="translate(86,43)"/>
</svg>
