<?xml version="1.0" encoding="UTF-8"?>
<svg version="1.1" xmlns="http://www.w3.org/2000/svg" width="48" height="48">
<path d="M0 0 C0.76550171 -0.00524185 1.53100342 -0.0104837 2.31970215 -0.0158844 C3.93691801 -0.02230307 5.55418056 -0.02096955 7.17138672 -0.01245117 C9.64765347 -0.00393581 12.12161719 -0.03270903 14.59765625 -0.06445312 C16.16927014 -0.06606511 17.74088812 -0.06548766 19.3125 -0.0625 C20.05318726 -0.07373398 20.79387451 -0.08496796 21.55700684 -0.09654236 C24.83376079 -0.05204565 26.66720185 -0.02027938 29.12158203 2.25756836 C30.60345358 5.37411416 30.5530811 7.99883412 30.53125 11.43359375 C30.54285156 13.25890625 30.54285156 13.25890625 30.5546875 15.12109375 C30.11432344 18.78215968 29.83082642 19.95138749 27.15625 22.43359375 C24.40635174 22.82712028 22.06110502 22.9713755 19.3125 22.9296875 C18.54699829 22.93114273 17.78149658 22.93259796 16.99279785 22.93409729 C15.37553092 22.93243848 13.75824817 22.92087898 12.14111328 22.90014648 C9.66500836 22.87119615 7.19104499 22.87953513 4.71484375 22.89257812 C3.14321876 22.88634041 1.57160053 22.8779492 0 22.8671875 C-1.11103088 22.87159096 -1.11103088 22.87159096 -2.24450684 22.87608337 C-5.1792032 22.82219904 -7.31968429 22.77934692 -9.80908203 21.13696289 C-11.62160865 18.15300862 -11.27293032 14.81685387 -11.21875 11.43359375 C-11.23035156 10.70914062 -11.24195313 9.9846875 -11.25390625 9.23828125 C-11.22525337 4.061661 -11.22525337 4.061661 -9.80908203 1.73022461 C-6.74708239 -0.28993441 -3.549887 -0.01406962 0 0 Z M-6.84375 5.43359375 C-6.94248816 7.43158947 -6.97346799 9.43316533 -6.96875 11.43359375 C-6.97132812 12.52671875 -6.97390625 13.61984375 -6.9765625 14.74609375 C-7.14922755 17.35189729 -7.14922755 17.35189729 -5.84375 18.43359375 C-3.56427208 18.53380305 -1.28167865 18.56440678 1 18.56640625 C1.68429077 18.56736298 2.36858154 18.5683197 3.0736084 18.56930542 C4.52286877 18.56998705 5.97213218 18.56813398 7.42138672 18.56396484 C9.64687928 18.55861627 11.87217001 18.56391035 14.09765625 18.5703125 C15.50260461 18.56965172 16.90755285 18.56837055 18.3125 18.56640625 C19.59962891 18.56527832 20.88675781 18.56415039 22.21289062 18.56298828 C25.04451157 18.77045518 25.04451157 18.77045518 26.15625 17.43359375 C26.25498816 15.43559803 26.28596799 13.43402217 26.28125 11.43359375 C26.28382812 10.34046875 26.28640625 9.24734375 26.2890625 8.12109375 C26.46172755 5.51529021 26.46172755 5.51529021 25.15625 4.43359375 C22.87677208 4.33338445 20.59417865 4.30278072 18.3125 4.30078125 C17.62820923 4.29982452 16.94391846 4.2988678 16.2388916 4.29788208 C14.78963123 4.29720045 13.34036782 4.29905352 11.89111328 4.30322266 C9.66562072 4.30857123 7.44032999 4.30327715 5.21484375 4.296875 C3.80989539 4.29753578 2.40494715 4.29881695 1 4.30078125 C-0.28712891 4.30190918 -1.57425781 4.30303711 -2.90039062 4.30419922 C-5.73201157 4.09673232 -5.73201157 4.09673232 -6.84375 5.43359375 Z " fill="#FFFFFF" transform="translate(11.84375,12.56640625)"/>
<path d="M0 0 C1.20970459 0.00523682 2.41940918 0.01047363 3.66577148 0.01586914 C4.97094727 0.0190918 6.27612305 0.02231445 7.62084961 0.02563477 C9.00952213 0.03399138 10.39819401 0.04245634 11.78686523 0.05102539 C13.17944179 0.05603873 14.57202005 0.06060193 15.96459961 0.06469727 C19.38456394 0.07653105 22.80444367 0.09301659 26.22436523 0.11352539 C26.22436523 4.07352539 26.22436523 8.03352539 26.22436523 12.11352539 C22.11263964 12.13818285 18.00094246 12.15636498 13.88916016 12.16845703 C12.48941295 12.17349619 11.08967103 12.18032756 9.68994141 12.18896484 C7.68190747 12.20104859 5.67383566 12.20622346 3.66577148 12.21118164 C2.45606689 12.21641846 1.2463623 12.22165527 0 12.22705078 C-2.77563477 12.11352539 -2.77563477 12.11352539 -3.77563477 11.11352539 C-3.87387414 9.44923488 -3.90537107 7.78070608 -3.90063477 6.11352539 C-3.90321289 5.20602539 -3.90579102 4.29852539 -3.90844727 3.36352539 C-3.71090023 0.01684615 -3.39264563 0.13876156 0 0 Z " fill="#FFFFFF" transform="translate(9.775634765625,17.886474609375)"/>
<path d="M0 0 C1.98 0.99 1.98 0.99 4 2 C4 3.98 4 5.96 4 8 C2.02 8.99 2.02 8.99 0 10 C0 6.7 0 3.4 0 0 Z " fill="#FFFFFF" transform="translate(43,19)"/>
</svg>
