<?xml version="1.0" encoding="UTF-8"?>
<svg xmlns="http://www.w3.org/2000/svg" viewBox="0 0 100 100" width="100" height="100">
<path d="M40 60.75C39.71 52.61 47.87 55.57 53.15 53.84C61.64 51.05 66.05 40.57 62.16 32.62C60.93 30.13 59.29 27.91 56.96 26.31C52.47 23.23 47.48 23.47 42.25 23.47C36.25 23.47 29.16 22.44 23.34 24.16C14.33 26.82 10.09 37.91 14.22 46.07C15.93 49.47 19.26 52.55 22.89 53.8C24.57 54.39 26.44 54.24 27.92 55.25C27.48 57.08 27.05 58.92 26.62 60.75C9.45 61.32 1.34 39.17 10.22 26.46C17.28 16.37 28.77 17.11 39.75 17.11C44.78 17.11 50.17 16.58 55 18.27C69.96 23.49 74.81 42.98 63.63 54.38C57.62 60.51 48.24 62.19 40 60.75ZM59.9 41.25C60.02 43.23 59.39 46.23 57.25 47.11C53.51 48.64 48.8 46.92 44.42 49.21C34.42 54.47 33.51 69.55 42.94 75.79C49.72 80.27 74.16 80.25 80.82 75.57C89.51 69.47 89.1 56.18 80.62 50.15C78.04 48.31 75.21 47.94 72.25 47.09C72.59 45.15 72.93 43.2 73.27 41.25C90.52 40.77 98.23 62.64 89.68 75.43C82.87 85.61 71.09 84.89 60.25 84.89C55.2 84.89 49.83 85.4 44.96 83.75C29.89 78.66 25.06 58.91 36.3 47.54C42.25 41.53 51.76 39.71 59.9 41.25Z" fill="#050505" fill-rule="evenodd" stroke="#050505" stroke-width="0.25" stroke-linejoin="round"/>
</svg>