<?xml version="1.0" encoding="UTF-8"?>
<svg xmlns="http://www.w3.org/2000/svg" viewBox="0 0 100 100" width="100" height="100">
<path d="M40 60.25C40.03 57.77 41.17 55.13 43.84 54.59C50.44 53.27 52.33 55.23 58.48 50.73C66.96 44.55 64.23 29.74 55.48 25.27C49.43 22.17 25.12 22.37 19.33 26.08C10.28 31.88 10.75 45.15 18.75 51.5C21.59 53.76 24.72 53.55 27.75 55C27.33 56.92 26.92 58.83 26.5 60.75C23.82 61.11 19.98 59.52 17.67 58.08C7.67 51.81 2.32 38.85 9.27 28.02C16.72 16.39 26.29 17.5 38.75 17.5C43.94 17.5 49.64 16.86 54.66 18.09C68.89 21.61 73.84 40.87 65.73 51.98C59.87 60.03 49.36 62.12 40 60.25ZM73.75 41C91.11 44.47 100.63 63.24 87.91 77.66C80.22 86.37 68.35 84.5 57.75 84.5C52.78 84.5 47.39 85.12 42.84 82.91C29.48 76.38 24.83 55.52 37.52 46.27C43.96 41.57 52.05 40.16 60 41.75C59.92 49.52 51.96 46.62 46.84 48.09C35.49 51.37 32.42 68.38 42.02 75.23C47.34 79.04 53.39 78.5 59.75 78.5C65.01 78.5 71.66 79.53 76.66 77.91C84.32 75.42 88.77 66.63 86.91 58.84C85.81 54.23 81.25 49.42 76.66 48.09C75.06 47.63 73.32 47.78 72 46.75C72.58 44.83 73.17 42.92 73.75 41Z" fill="#ffffff" fill-rule="evenodd" stroke="#ffffff" stroke-width="0.25" stroke-linejoin="round"/>
</svg>