<?xml version="1.0" encoding="UTF-8"?>
<svg version="1.1" xmlns="http://www.w3.org/2000/svg" width="100" height="100">
<path d="M0 0 C5.97894737 4.7625731 5.97894737 4.7625731 8 8 C7.77797392 11.65232908 7.07867785 12.90165268 4.75 15.8125 C2 18 2 18 -0.43359375 18.33984375 C-3.60600703 17.91975249 -4.57488128 16.99232949 -6.8125 14.75 C-15.7404242 6.44300286 -25.97201501 4.39185711 -37.984375 4.68359375 C-47.23728876 5.20466971 -56.79728594 9.55713085 -63.1875 16.3125 C-65 18 -65 18 -67.375 18.625 C-71.37404128 17.67284731 -73.70553049 15.35776027 -76 12 C-76.38040177 9.0328662 -75.56673206 7.82767345 -73.9140625 5.4140625 C-70.05199281 0.89809742 -65.28767849 -1.6754884 -60.0625 -4.3125 C-59.39468506 -4.64999268 -58.72687012 -4.98748535 -58.03881836 -5.33520508 C-39.38039272 -14.32680657 -16.95974499 -11.45503641 0 0 Z " fill="#000000" transform="translate(84,31)"/>
<path d="M0 0 C0.825 0.639375 1.65 1.27875 2.5 1.9375 C3.139375 2.411875 3.77875 2.88625 4.4375 3.375 C5.5 4.9375 5.5 4.9375 5.5625 7.3125 C4.02556114 11.10964307 1.89244222 12.7193647 -1.5 14.9375 C-5.82029566 15.16488398 -9.0825014 12.44565746 -12.53515625 10.09375 C-16.82174011 7.57122749 -21.62892795 7.32342959 -26.5 7.9375 C-32.83878011 9.80372095 -32.83878011 9.80372095 -38.11328125 13.57421875 C-39.5 14.9375 -39.5 14.9375 -42.375 14.9375 C-46.28675438 13.6857386 -48.0428745 12.21366733 -50.5 8.9375 C-50.6875 6.4375 -50.6875 6.4375 -49.5 3.9375 C-36.65926915 -9.22424912 -14.98604833 -9.46679638 0 0 Z " fill="#000000" transform="translate(72.5,48.0625)"/>
<path d="M0 0 C3.31804319 1.33100211 5.48261708 3.48261708 8 6 C7.81145468 10.13004043 5.07643555 12.4240928 2.3125 15.25 C1.46300781 16.14203125 0.61351563 17.0340625 -0.26171875 17.953125 C-3 20 -3 20 -5.9609375 20.625 C-10.02900168 19.78838012 -12.17852261 17.66864903 -14.9375 14.75 C-15.44345703 14.25886719 -15.94941406 13.76773438 -16.47070312 13.26171875 C-17.90234375 11.796875 -17.90234375 11.796875 -20 9 C-19.96875 6.77734375 -19.96875 6.77734375 -19 5 C-12.91134634 -0.46417636 -8.0283861 -0.78606914 0 0 Z " fill="#000000" transform="translate(56,62)"/>
</svg>
