<?xml version="1.0" encoding="UTF-8"?>
<svg xmlns="http://www.w3.org/2000/svg" viewBox="0 0 100 100" width="100" height="100">
<path d="M45.75 11C49.18 11.04 50.97 13.72 53.25 16C58.53 21.28 65.05 26.45 69 32.75C66.47 39.21 58.38 44.87 53.5 49.75C54.31 53.53 66.1 62.62 69 67.25C65.22 73.27 59.05 78.2 54 83.25C52.51 84.74 50.15 88.24 48.16 88.91C46.45 89.48 45.37 88.47 44 87.75C44 81.08 44 74.42 44 67.75C44 65.42 44.71 61.87 43.25 60C39.08 64 34.92 68 30.75 72C28.08 71.97 25.25 69.84 27.27 67.02C31.52 61.06 38.32 55.93 43.5 50.75C42.64 46.74 33.47 39.22 30.25 36C28.53 34.28 25.35 32.14 27.27 29.52C31.14 24.2 39.63 39.11 43.75 40C45.01 33.7 44 26.21 44 19.75C44 16.43 43.3 13.45 45.75 11ZM50.13 22.97C49.1 24.27 48.99 41.17 49.92 43.01C51.3 43.7 59.79 34.68 61 32.75C59.38 31.13 51.2 22.25 50.13 22.97ZM49.92 56.98C49 58.81 49.11 75.7 50.13 77.01C51.2 77.77 59.37 68.88 61 67.25C59.25 65.5 51.66 56.12 49.92 56.98Z" fill="#ffffff" fill-rule="evenodd" stroke="#ffffff" stroke-width="0.25" stroke-linejoin="round"/>
<path d="M50.13 22.97C50.06 29.65 49.99 36.33 49.92 43.01C48.99 41.17 49.1 24.27 50.13 22.97ZM49.92 56.98C49.99 63.66 50.06 70.33 50.13 77.01C49.11 75.7 49 58.81 49.92 56.98Z" fill="#d5d5d5" fill-rule="evenodd" stroke="#d5d5d5" stroke-width="0.25" stroke-linejoin="round"/>
</svg>