<?xml version="1.0" encoding="UTF-8"?>
<svg version="1.1" xmlns="http://www.w3.org/2000/svg" width="512" height="512">
<path d="M0 0 C168.96 0 337.92 0 512 0 C512 168.96 512 337.92 512 512 C343.04 512 174.08 512 0 512 C0 343.04 0 174.08 0 0 Z " fill="#F3B95E" transform="translate(0,0)"/>
<path d="M0 0 C84.48 0 168.96 0 256 0 C256 84.48 256 168.96 256 256 C171.52 256 87.04 256 0 256 C0 171.52 0 87.04 0 0 Z " fill="#E98A5B" transform="translate(256,256)"/>
<path d="M0 0 C84.48 0 168.96 0 256 0 C256 84.48 256 168.96 256 256 C171.52 256 87.04 256 0 256 C0 171.52 0 87.04 0 0 Z " fill="#F3B95E" transform="translate(256,0)"/>
<path d="M0 0 C84.48 0 168.96 0 256 0 C256 84.48 256 168.96 256 256 C171.52 256 87.04 256 0 256 C0 171.52 0 87.04 0 0 Z " fill="#FAE358" transform="translate(0,0)"/>
<path d="M0 0 C1.22074219 0.42539062 2.44148438 0.85078125 3.69921875 1.2890625 C24.64061371 8.91386469 39.90260963 24.17678159 49.3046875 44.15234375 C57.36297527 61.9932008 57.30354376 82.65160526 50.78271484 100.94091797 C43.5524988 119.96139273 29.65836219 136.36576919 11 145 C-3.0583441 150.48269197 -14.99594514 152.30430557 -30 152 C-30.87527344 151.98324219 -31.75054687 151.96648437 -32.65234375 151.94921875 C-52.71975576 150.60112005 -70.86442331 137.49694934 -83.6796875 122.9140625 C-97.71739133 105.28421897 -101.5517656 84.94814017 -100 63 C-98.14457182 47.9337902 -90.15606903 33.08309358 -80 22 C-79.15501953 21.05253906 -79.15501953 21.05253906 -78.29296875 20.0859375 C-59.10855868 -0.31153831 -26.66056249 -9.70138115 0 0 Z " fill="#5D7BDB" transform="translate(399,61)"/>
<path d="M0 0 C13.81427682 12.86454529 23.93173126 30.52566938 24.875 49.6875 C24.98908203 51.63462891 24.98908203 51.63462891 25.10546875 53.62109375 C25.91429842 73.66407079 19.57563651 92.83778287 6.31640625 108.09375 C-7.44892295 122.71803574 -25.84536877 134.16316851 -46.49609375 134.890625 C-70.60808676 135.26744942 -90.95802958 128.44397088 -108.5625 111.6875 C-124.4073122 94.79537612 -130.72084381 74.03359738 -130.39453125 51.34375 C-129.81068983 34.04133636 -121.72823732 17.34985634 -110.125 4.6875 C-109.28001953 3.74003906 -109.28001953 3.74003906 -108.41796875 2.7734375 C-79.00099201 -28.5036291 -31.20931039 -26.89967875 0 0 Z " fill="#71B7F0" transform="translate(188.125,319.3125)"/>
<path d="M0 0 C6.49293159 3.10842147 10.98962811 7.59915984 15.99609375 12.703125 C17.24641136 13.95980988 17.24641136 13.95980988 18.52198792 15.24188232 C21.16765235 17.9042623 23.80266014 20.5769113 26.4375 23.25 C28.23563334 25.06318928 30.03445424 26.87569699 31.83398438 28.6875 C36.23064841 33.11713882 40.61862305 37.55524286 45 42 C50.18485577 37.67145517 54.9930466 33.11508516 59.7265625 28.30078125 C61.18476249 26.82994591 62.64309987 25.35924678 64.1015625 23.88867188 C66.37238787 21.59297087 68.64156855 19.29568873 70.90820312 16.99584961 C73.11408597 14.75975245 75.32615736 12.52992608 77.5390625 10.30078125 C78.21313141 9.61325272 78.88720032 8.92572418 79.58169556 8.21736145 C87.271374 0.48694129 87.271374 0.48694129 92.4296875 -0.43359375 C98.50604199 -0.44330039 102.10811284 0.30612603 107 4 C110.40236096 7.7316217 110.37959332 11.47380294 110.49609375 16.3046875 C109.02846634 24.2784112 102.8346943 29.56406176 97.296875 34.99609375 C96.45908508 35.82963882 95.62129517 36.6631839 94.75811768 37.52198792 C92.0957377 40.16765235 89.4230887 42.80266014 86.75 45.4375 C84.93681072 47.23563334 83.12430301 49.03445424 81.3125 50.83398438 C76.88286118 55.23064841 72.44475714 59.61862305 68 64 C72.32854483 69.18485577 76.88491484 73.9930466 81.69921875 78.7265625 C83.17005409 80.18476249 84.64075322 81.64309987 86.11132812 83.1015625 C88.40702913 85.37238787 90.70431127 87.64156855 93.00415039 89.90820312 C95.24024755 92.11408597 97.47007392 94.32615736 99.69921875 96.5390625 C100.38674728 97.21313141 101.07427582 97.88720032 101.78263855 98.58169556 C109.51305871 106.271374 109.51305871 106.271374 110.43359375 111.4296875 C110.44328648 117.49733559 109.75861751 121.15336164 106 126 C101.80905036 129.09331997 97.80119742 129.41676648 92.7578125 129.69140625 C84.97902341 127.74119992 78.78904182 120.05968532 73.34375 114.5390625 C72.55601196 113.74849457 71.76827393 112.95792664 70.95666504 112.1434021 C68.4663333 109.6419644 65.98308507 107.13362923 63.5 104.625 C61.80254843 102.91750626 60.1046362 101.21047035 58.40625 99.50390625 C54.26549262 95.3412158 50.13051272 91.17285479 46 87 C40.81777435 91.32320062 36.02682424 95.87788752 31.30859375 100.69921875 C29.85510751 102.17020828 28.40132258 103.64090273 26.94726562 105.11132812 C24.6839129 107.40569579 22.42298837 109.70230814 20.16723633 112.00415039 C17.97113606 114.24264366 15.76564233 116.47152637 13.55859375 118.69921875 C12.88968613 119.38674728 12.2207785 120.07427582 11.53160095 120.78263855 C7.34368015 124.99324664 3.49698652 128.40828429 -2.5625 129.43359375 C-8.19977561 129.44262785 -11.63883704 128.93568365 -16 125 C-19.51610737 121.1322819 -19.45078868 117.0063561 -19.69140625 112.01171875 C-17.86973153 104.07662718 -10.13854872 97.86682911 -4.5390625 92.34375 C-3.74849457 91.55601196 -2.95792664 90.76827393 -2.1434021 89.95666504 C0.3580356 87.4663333 2.86637077 84.98308507 5.375 82.5 C7.08249374 80.80254843 8.78952965 79.1046362 10.49609375 77.40625 C14.6587842 73.26549262 18.82714521 69.13051272 23 65 C18.67679938 59.81777435 14.12211248 55.02682424 9.30078125 50.30859375 C7.82979172 48.85510751 6.35909727 47.40132258 4.88867188 45.94726562 C2.59430421 43.6839129 0.29769186 41.42298837 -2.00415039 39.16723633 C-4.24264366 36.97113606 -6.47152637 34.76564233 -8.69921875 32.55859375 C-9.38674728 31.88968613 -10.07427582 31.2207785 -10.78263855 30.53160095 C-14.99324664 26.34368015 -18.40828429 22.49698652 -19.43359375 16.4375 C-19.44262785 10.80022439 -18.93568365 7.36116296 -15 3 C-10.73802193 -0.76056889 -5.42633886 -0.99876092 0 0 Z " fill="#F97980" transform="translate(90,71)"/>
<path d="M0 0 C6.49293159 3.10842147 10.98962811 7.59915984 15.99609375 12.703125 C17.24641136 13.95980988 17.24641136 13.95980988 18.52198792 15.24188232 C21.16765235 17.9042623 23.80266014 20.5769113 26.4375 23.25 C28.23563334 25.06318928 30.03445424 26.87569699 31.83398438 28.6875 C36.23064841 33.11713882 40.61862305 37.55524286 45 42 C50.18485577 37.67145517 54.9930466 33.11508516 59.7265625 28.30078125 C61.18476249 26.82994591 62.64309987 25.35924678 64.1015625 23.88867188 C66.37238787 21.59297087 68.64156855 19.29568873 70.90820312 16.99584961 C73.11408597 14.75975245 75.32615736 12.52992608 77.5390625 10.30078125 C78.21313141 9.61325272 78.88720032 8.92572418 79.58169556 8.21736145 C87.271374 0.48694129 87.271374 0.48694129 92.4296875 -0.43359375 C98.50604199 -0.44330039 102.10811284 0.30612603 107 4 C110.40236096 7.7316217 110.37959332 11.47380294 110.49609375 16.3046875 C109.02846634 24.2784112 102.8346943 29.56406176 97.296875 34.99609375 C96.45908508 35.82963882 95.62129517 36.6631839 94.75811768 37.52198792 C92.0957377 40.16765235 89.4230887 42.80266014 86.75 45.4375 C84.93681072 47.23563334 83.12430301 49.03445424 81.3125 50.83398438 C76.88286118 55.23064841 72.44475714 59.61862305 68 64 C72.32854483 69.18485577 76.88491484 73.9930466 81.69921875 78.7265625 C83.17005409 80.18476249 84.64075322 81.64309987 86.11132812 83.1015625 C88.40702913 85.37238787 90.70431127 87.64156855 93.00415039 89.90820312 C95.24024755 92.11408597 97.47007392 94.32615736 99.69921875 96.5390625 C100.38674728 97.21313141 101.07427582 97.88720032 101.78263855 98.58169556 C109.51305871 106.271374 109.51305871 106.271374 110.43359375 111.4296875 C110.44328648 117.49733559 109.75861751 121.15336164 106 126 C101.80905036 129.09331997 97.80119742 129.41676648 92.7578125 129.69140625 C84.97902341 127.74119992 78.78904182 120.05968532 73.34375 114.5390625 C72.55601196 113.74849457 71.76827393 112.95792664 70.95666504 112.1434021 C68.4663333 109.6419644 65.98308507 107.13362923 63.5 104.625 C61.80254843 102.91750626 60.1046362 101.21047035 58.40625 99.50390625 C54.26549262 95.3412158 50.13051272 91.17285479 46 87 C40.81777435 91.32320062 36.02682424 95.87788752 31.30859375 100.69921875 C29.85510751 102.17020828 28.40132258 103.64090273 26.94726562 105.11132812 C24.6839129 107.40569579 22.42298837 109.70230814 20.16723633 112.00415039 C17.97113606 114.24264366 15.76564233 116.47152637 13.55859375 118.69921875 C12.88968613 119.38674728 12.2207785 120.07427582 11.53160095 120.78263855 C7.34368015 124.99324664 3.49698652 128.40828429 -2.5625 129.43359375 C-8.18255279 129.44260024 -11.69696239 128.9881812 -16 125 C-19.03280806 120.75406872 -19.41605284 116.81430232 -19.69140625 111.7578125 C-17.74119992 103.97902341 -10.05968532 97.78904182 -4.5390625 92.34375 C-3.74849457 91.55601196 -2.95792664 90.76827393 -2.1434021 89.95666504 C0.3580356 87.4663333 2.86637077 84.98308507 5.375 82.5 C7.08249374 80.80254843 8.78952965 79.1046362 10.49609375 77.40625 C14.6587842 73.26549262 18.82714521 69.13051272 23 65 C18.67679938 59.81777435 14.12211248 55.02682424 9.30078125 50.30859375 C7.82979172 48.85510751 6.35909727 47.40132258 4.88867188 45.94726562 C2.59430421 43.6839129 0.29769186 41.42298837 -2.00415039 39.16723633 C-4.24264366 36.97113606 -6.47152637 34.76564233 -8.69921875 32.55859375 C-9.38674728 31.88968613 -10.07427582 31.2207785 -10.78263855 30.53160095 C-14.99324664 26.34368015 -18.40828429 22.49698652 -19.43359375 16.4375 C-19.44262785 10.80022439 -18.93568365 7.36116296 -15 3 C-10.73802193 -0.76056889 -5.42633886 -0.99876092 0 0 Z " fill="#E05559" transform="translate(331,312)"/>
<path d="M0 0 C0.928125 0.680625 1.85625 1.36125 2.8125 2.0625 C4.2665625 3.114375 4.2665625 3.114375 5.75 4.1875 C13.52197445 10.85793476 18.91485887 21.03722612 20.8125 31.0625 C21.33202312 40.11419129 21.40230116 48.58537919 17.8125 57.0625 C17.28462891 58.32320312 17.28462891 58.32320312 16.74609375 59.609375 C10.92234315 72.29477235 1.09774384 80.40860565 -11.86328125 85.3359375 C-23.39754733 88.94160723 -36.2925907 88.21656918 -47.1875 83.0625 C-50.36898331 81.26769102 -53.28420695 79.27480931 -56.1875 77.0625 C-57.21875 76.32 -58.25 75.5775 -59.3125 74.8125 C-69.94250982 64.64466452 -74.01087076 52.78064491 -74.5 38.375 C-74.39444027 27.32641497 -70.78055402 18.78118345 -64.1875 10.0625 C-63.56875 9.175625 -62.95 8.28875 -62.3125 7.375 C-45.71868332 -10.68297697 -20.34667933 -12.3675894 0 0 Z " fill="#F2B95E" transform="translate(403.1875,95.9375)"/>
<path d="M0 0 C1.26070312 0.52787109 1.26070312 0.52787109 2.546875 1.06640625 C15.26266651 6.90411053 23.39661233 16.75443465 28.2734375 29.7734375 C32.20634058 41.82588243 30.38235353 54.63866001 25.06640625 65.9375 C23.58444072 68.80371904 21.90788684 71.39833613 20 74 C18.948125 75.4540625 18.948125 75.4540625 17.875 76.9375 C11.18464612 84.73268296 1.62258703 89.47171069 -8.25 91.75 C-23.33658956 92.75577264 -34.74573132 91.33775273 -47 82 C-48.03125 81.2575 -49.0625 80.515 -50.125 79.75 C-60.75500982 69.58216452 -64.82337076 57.71814491 -65.3125 43.3125 C-65.20694027 32.26391497 -61.59305402 23.71868345 -55 15 C-54.38125 14.113125 -53.7625 13.22625 -53.125 12.3125 C-39.8578639 -2.12526576 -18.22870602 -7.71929898 0 0 Z " fill="#F3B95F" transform="translate(153,332)"/>
<path d="M0 0 C1.10845475 2.21690951 2.20116477 4.44269062 3.2265625 6.69921875 C8.85221932 18.72052452 16.07723317 27.11909564 28.63671875 32.03125 C30.7464927 32.74665216 32.85257368 33.40867971 35 34 C35 34.33 35 34.66 35 35 C23.45 35 11.9 35 0 35 C0 23.45 0 11.9 0 0 Z " fill="#000000" transform="translate(0,477)"/>
<path d="M0 0 C0.33 0 0.66 0 1 0 C1 11.55 1 23.1 1 35 C-10.55 35 -22.1 35 -34 35 C-31.78309049 33.89154525 -29.55730938 32.79883523 -27.30078125 31.7734375 C-15.27947548 26.14778068 -6.88090436 18.92276683 -1.96875 6.36328125 C-1.25334784 4.2535073 -0.59132029 2.14742632 0 0 Z " fill="#000000" transform="translate(511,477)"/>
<path d="M0 0 C11.55 0 23.1 0 35 0 C35 11.55 35 23.1 35 35 C33.89154525 32.78309049 32.79883523 30.55730938 31.7734375 28.30078125 C26.14778068 16.27947548 18.92276683 7.88090436 6.36328125 2.96875 C4.2535073 2.25334784 2.14742632 1.59132029 0 1 C0 0.67 0 0.34 0 0 Z " fill="#000000" transform="translate(477,0)"/>
<path d="M0 0 C11.55 0 23.1 0 35 0 C32.78309049 1.10845475 30.55730938 2.20116477 28.30078125 3.2265625 C16.27947548 8.85221932 7.88090436 16.07723317 2.96875 28.63671875 C2.25334784 30.7464927 1.59132029 32.85257368 1 35 C0.67 35 0.34 35 0 35 C0 23.45 0 11.9 0 0 Z " fill="#000000" transform="translate(0,0)"/>
</svg>
