<?xml version="1.0" encoding="UTF-8"?>
<svg version="1.1" xmlns="http://www.w3.org/2000/svg" width="48" height="48">
<path d="M0 0 C4.42688037 2.13438875 7.38529796 4.8358449 10 9 C10.75 12.8125 10.75 12.8125 11 16 C11.78375 15.95875 12.5675 15.9175 13.375 15.875 C16 16 16 16 18 18 C18.25 21 18.25 21 18 24 C16 26 16 26 12.8125 26.25 C8.39123323 27.1197574 6.66001657 28.5982451 3.48046875 31.625 C-0.18178833 35.0263575 -4.65072619 34.26008572 -9.375 34.3125 C-10.23867188 34.34150391 -11.10234375 34.37050781 -11.9921875 34.40039062 C-18.38133668 34.46447931 -18.38133668 34.46447931 -21.5078125 32.1171875 C-26.10138677 25.59960306 -30.84521661 18.24086197 -30 10 C-27.36 9.67 -24.72 9.34 -22 9 C-21.67 8.01 -21.34 7.02 -21 6 C-14.84908463 -0.00481287 -8.35834512 -1.39504476 0 0 Z " fill="#372C2C" transform="translate(30,7)"/>
<path d="M0 0 C3 1.5 3 1.5 5 3 C4.68546875 3.51304688 4.3709375 4.02609375 4.046875 4.5546875 C2.67314256 7.76348044 2.49671679 10.64919586 2.25 14.125 C2.15203125 15.36507813 2.0540625 16.60515625 1.953125 17.8828125 C1.63968238 21.10394563 1.63968238 21.10394563 4 23 C5.31747324 23.69748583 6.64914193 24.36959957 8 25 C-0.07744875 30.74031891 -0.07744875 30.74031891 -6 30 C-5.505 29.34 -5.01 28.68 -4.5 28 C-2.58104285 24.16208571 -2.15439406 21.21094676 -3 17 C-5.19151379 13.34747701 -7.18177363 12.24566603 -11.2265625 11.03125 C-14.47410566 10.2671222 -17.71696008 9.59123559 -21 9 C-19.59351332 6.18702664 -17.73570226 5.54626649 -15 4 C-13.906875 3.278125 -12.81375 2.55625 -11.6875 1.8125 C-7.60550477 -0.49974131 -4.64802075 -0.52477654 0 0 Z " fill="#F6E75E" transform="translate(28,9)"/>
<path d="M0 0 C16.2 1.54285714 16.2 1.54285714 20.625 5.125 C22.24268271 8.50742748 22.35948679 10.49143989 21.671875 14.12890625 C20.54079398 17.27883538 18.89839328 18.45419025 16 20 C12.875 20.5625 12.875 20.5625 10 20 C8.125 17.5 8.125 17.5 7 15 C9.64 15 12.28 15 15 15 C15 14.34 15 13.68 15 13 C14.38511719 13.03480469 13.77023437 13.06960937 13.13671875 13.10546875 C11.92435547 13.14607422 11.92435547 13.14607422 10.6875 13.1875 C9.48673828 13.23970703 9.48673828 13.23970703 8.26171875 13.29296875 C6 13 6 13 4.20703125 11.61328125 C3 10 3 10 3 8 C5.97 8 8.94 8 12 8 C12 7.34 12 6.68 12 6 C11.07767578 6.05220703 11.07767578 6.05220703 10.13671875 6.10546875 C9.32847656 6.13253906 8.52023437 6.15960937 7.6875 6.1875 C6.48673828 6.23970703 6.48673828 6.23970703 5.26171875 6.29296875 C3 6 3 6 1.20703125 4.67578125 C0 3 0 3 0 0 Z " fill="#F7F7F7" transform="translate(2,19)"/>
<path d="M0 0 C3 1.5 3 1.5 5 3 C4.1875 5.5 4.1875 5.5 2 8 C-0.88959898 8.3327417 -3.60201935 8.24769077 -6.50390625 8.078125 C-9.00021769 7.80220235 -9.00021769 7.80220235 -11 9 C-12.70702735 9.06996014 -14.41668003 9.08440154 -16.125 9.0625 C-17.03507812 9.05347656 -17.94515625 9.04445313 -18.8828125 9.03515625 C-19.58148438 9.02355469 -20.28015625 9.01195312 -21 9 C-19.59351332 6.18702664 -17.73570226 5.54626649 -15 4 C-13.906875 3.278125 -12.81375 2.55625 -11.6875 1.8125 C-7.60550477 -0.49974131 -4.64802075 -0.52477654 0 0 Z " fill="#F7F2B9" transform="translate(28,9)"/>
<path d="M0 0 C4.63157895 3.26315789 4.63157895 3.26315789 6 6 C6.46829268 13.37560976 6.46829268 13.37560976 4.5 16 C4.005 16.33 3.51 16.66 3 17 C2 15 2 15 2.625 11.125 C2.97534839 8.43899571 3.0768612 7.20862325 2.125 4.625 C-1.19045884 2.08964912 -4.93882284 1.64706387 -9 1 C-5.48432591 -0.91764041 -3.88372641 -1.32615048 0 0 Z " fill="#3A382A" transform="translate(20,20)"/>
<path d="M0 0 C0.66 0 1.32 0 2 0 C4.43160605 3.36683915 5 4.73350364 5 9 C2.69 9 0.38 9 -2 9 C-2.125 5.625 -2.125 5.625 -2 2 C-1.34 1.34 -0.68 0.68 0 0 Z " fill="#CBCBCB" transform="translate(34,14)"/>
<path d="M0 0 C0.66 0 1.32 0 2 0 C2 0.66 2 1.32 2 2 C5.96 1.34 9.92 0.68 14 0 C11.38727033 3.07379961 9.89757751 4.8204845 5.875 5.625 C3 5 3 5 1.125 2.5 C0.75375 1.675 0.3825 0.85 0 0 Z " fill="#D5D5D5" transform="translate(9,34)"/>
<path d="M0 0 C0.66 0.66 1.32 1.32 2 2 C-0.63250388 3.31625194 -1.80179056 2.74813658 -4.625 2.0625 C-5.85089844 1.77052734 -5.85089844 1.77052734 -7.1015625 1.47265625 C-8.04128906 1.23869141 -8.04128906 1.23869141 -9 1 C-5.52495122 -0.92236741 -3.85856625 -1.21849461 0 0 Z " fill="#40403A" transform="translate(20,20)"/>
</svg>
